<?xml version="1.0" encoding="UTF-8"?><svg xmlns="http://www.w3.org/2000/svg" width="810" height="210" version="1.0" shape-rendering="geometricPrecision"><defs><filter id="shadowBlur" x="0" y="0" width="200%" height="200%"><feOffset in="SourceGraphic" dx="3.0003002" dy="3.0003002" result="offOut"></feOffset><feGaussianBlur in="offOut" stdDeviation="3"></feGaussianBlur></filter></defs><g stroke-width="1" stroke-linecap="square" stroke-linejoin="round"><rect x="0" y="0" width="810" height="210" style="fill: #ffffff"></rect><path stroke="#969696" fill="#969696" filter="url(#shadowBlur)" d="M325.0 35.0 L475.0 35.0 L475.0 119.0 L325.0 119.0 z"></path><path stroke="#969696" fill="#969696" filter="url(#shadowBlur)" d="M35.0 35.0 L165.0 35.0 L165.0 119.0 L35.0 119.0 z"></path><path stroke="#969696" fill="#969696" filter="url(#shadowBlur)" d="M625.0 35.0 L785.0 35.0 L785.0 63.0 L625.0 63.0 z"></path><path stroke="#969696" fill="#969696" filter="url(#shadowBlur)" d="M625.0 91.0 L785.0 91.0 L785.0 119.0 L625.0 119.0 z"></path><path stroke="#969696" fill="#969696" filter="url(#shadowBlur)" d="M625.0 147.0 L785.0 147.0 L785.0 175.0 L625.0 175.0 z"></path><path stroke="#000000" stroke-width="1.0" stroke-linecap="round" stroke-linejoin="round" fill="white" d="M325.0 35.0 L475.0 35.0 L475.0 119.0 L325.0 119.0 z"></path><path stroke="#000000" stroke-width="1.0" stroke-linecap="round" stroke-linejoin="round" fill="white" d="M35.0 35.0 L165.0 35.0 L165.0 119.0 L35.0 119.0 z"></path><path stroke="#000000" stroke-width="1.0" stroke-linecap="round" stroke-linejoin="round" fill="white" d="M625.0 35.0 L785.0 35.0 L785.0 63.0 L625.0 63.0 z"></path><path stroke="#000000" stroke-width="1.0" stroke-linecap="round" stroke-linejoin="round" fill="white" d="M625.0 91.0 L785.0 91.0 L785.0 119.0 L625.0 119.0 z"></path><path stroke="#000000" stroke-width="1.0" stroke-linecap="round" stroke-linejoin="round" fill="white" d="M625.0 147.0 L785.0 147.0 L785.0 175.0 L625.0 175.0 z"></path><path stroke="#000000" stroke-width="1.0" stroke-linecap="round" stroke-linejoin="round" fill="none" d="M405.0 133.0 L405.0 161.0 L615.0 161.0 "></path><path stroke="none" stroke-width="1.0" stroke-linecap="round" stroke-linejoin="round" fill="#000000" d="M610.0 42.0 L620.0 49.0 L610.0 56.0 z"></path><path stroke="none" stroke-width="1.0" stroke-linecap="round" stroke-linejoin="round" fill="#000000" d="M310.0 70.0 L320.0 77.0 L310.0 84.0 z"></path><path stroke="none" stroke-width="1.0" stroke-linecap="round" stroke-linejoin="round" fill="#000000" d="M610.0 98.0 L620.0 105.0 L610.0 112.0 z"></path><path stroke="none" stroke-width="1.0" stroke-linecap="round" stroke-linejoin="round" fill="#000000" d="M610.0 154.0 L620.0 161.0 L610.0 168.0 z"></path><path stroke="#000000" stroke-width="1.0" stroke-linecap="round" stroke-linejoin="round" fill="none" d="M485.0 49.0 L615.0 49.0 "></path><path stroke="#000000" stroke-width="1.0" stroke-linecap="round" stroke-linejoin="round" fill="none" d="M175.0 77.0 L315.0 77.0 "></path><path stroke="#000000" stroke-width="1.0" stroke-linecap="round" stroke-linejoin="round" fill="none" d="M485.0 105.0 L615.0 105.0 "></path><text x="524" y="40" font-family="sans-serif" font-size="15" stroke="none" fill="#000000"><![CDATA[metrics]]></text><text x="75" y="54" font-family="sans-serif" font-size="15" stroke="none" fill="#000000"><![CDATA[Service]]></text><text x="660" y="54" font-family="sans-serif" font-size="15" stroke="none" fill="#000000"><![CDATA[Prometheus]]></text><text x="212" y="68" font-family="sans-serif" font-size="13" stroke="none" fill="#000000"><![CDATA[OTLP]]></text><text x="369" y="82" font-family="sans-serif" font-size="15" stroke="none" fill="#000000"><![CDATA[Collector]]></text><text x="57" y="96" font-family="sans-serif" font-size="15" stroke="none" fill="#000000"><![CDATA[Otel agent]]></text><text x="524" y="96" font-family="sans-serif" font-size="15" stroke="none" fill="#000000"><![CDATA[logs]]></text><text x="683" y="110" font-family="sans-serif" font-size="15" stroke="none" fill="#000000"><![CDATA[Loki]]></text><text x="474" y="152" font-family="sans-serif" font-size="15" stroke="none" fill="#000000"><![CDATA[traces]]></text><text x="674" y="166" font-family="sans-serif" font-size="15" stroke="none" fill="#000000"><![CDATA[Jaeger]]></text></g></svg>