<?xml version="1.0" encoding="UTF-8"?><svg xmlns="http://www.w3.org/2000/svg" width="1040" height="238" version="1.0" shape-rendering="geometricPrecision"><defs><filter id="shadowBlur" x="0" y="0" width="200%" height="200%"><feOffset in="SourceGraphic" dx="3.0003002" dy="3.0003002" result="offOut"></feOffset><feGaussianBlur in="offOut" stdDeviation="3"></feGaussianBlur></filter></defs><g stroke-width="1" stroke-linecap="square" stroke-linejoin="round"><rect x="0" y="0" width="1040" height="238" style="fill: #ffffff"></rect><path stroke="#969696" fill="#969696" filter="url(#shadowBlur)" d="M405.0 35.0 L605.0 35.0 L605.0 119.0 L405.0 119.0 z"></path><path stroke="#969696" fill="#969696" filter="url(#shadowBlur)" d="M835.0 35.0 L1015.0 35.0 L1015.0 91.0 L835.0 91.0 z"></path><path stroke="#969696" fill="#969696" filter="url(#shadowBlur)" d="M35.0 35.0 L165.0 35.0 L165.0 77.0 L35.0 77.0 z"></path><path stroke="#969696" fill="#969696" filter="url(#shadowBlur)" d="M35.0 161.0 L155.0 161.0 L155.0 203.0 L35.0 203.0 z"></path><path stroke="#000000" stroke-width="1.0" stroke-linecap="round" stroke-linejoin="round" fill="white" d="M405.0 35.0 L605.0 35.0 L605.0 119.0 L405.0 119.0 z"></path><path stroke="#000000" stroke-width="1.0" stroke-linecap="round" stroke-linejoin="round" fill="white" d="M835.0 35.0 L1015.0 35.0 L1015.0 91.0 L835.0 91.0 z"></path><path stroke="#000000" stroke-width="1.0" stroke-linecap="round" stroke-linejoin="round" fill="none" d="M495.0 119.0 L495.0 175.0 L175.0 175.0 "></path><path stroke="#000000" stroke-width="1.0" stroke-linecap="round" stroke-linejoin="round" fill="white" d="M35.0 35.0 L165.0 35.0 L165.0 77.0 L35.0 77.0 z"></path><path stroke="#000000" stroke-width="1.0" stroke-linecap="round" stroke-linejoin="round" fill="white" d="M35.0 161.0 L155.0 161.0 L155.0 203.0 L35.0 203.0 z"></path><path stroke="none" stroke-width="1.0" stroke-linecap="round" stroke-linejoin="round" fill="#000000" d="M380.0 42.0 L390.0 49.0 L380.0 56.0 z"></path><path stroke="none" stroke-width="1.0" stroke-linecap="round" stroke-linejoin="round" fill="#000000" d="M810.0 42.0 L820.0 49.0 L810.0 56.0 z"></path><path stroke="none" stroke-width="1.0" stroke-linecap="round" stroke-linejoin="round" fill="#000000" d="M190.0 56.0 L180.0 63.0 L190.0 70.0 z"></path><path stroke="none" stroke-width="1.0" stroke-linecap="round" stroke-linejoin="round" fill="#000000" d="M630.0 56.0 L620.0 63.0 L630.0 70.0 z"></path><path stroke="none" stroke-width="1.0" stroke-linecap="round" stroke-linejoin="round" fill="#000000" d="M90.0 140.0 L95.0 154.0 L100.0 140.0 z"></path><path stroke="none" stroke-width="1.0" stroke-linecap="round" stroke-linejoin="round" fill="#000000" d="M180.0 168.0 L170.0 175.0 L180.0 182.0 z"></path><path stroke="#000000" stroke-width="1.0" stroke-linecap="round" stroke-linejoin="round" fill="none" d="M680.0 161.0 L689.0 161.0 "></path><path stroke="#000000" stroke-width="1.0" stroke-linecap="round" stroke-linejoin="round" fill="none" d="M185.0 49.0 L385.0 49.0 "></path><path stroke="#000000" stroke-width="1.0" stroke-linecap="round" stroke-linejoin="round" fill="none" d="M625.0 49.0 L815.0 49.0 "></path><path stroke="#000000" stroke-width="1.0" stroke-linecap="round" stroke-linejoin="round" fill="none" d="M185.0 63.0 L385.0 63.0 "></path><path stroke="#000000" stroke-width="1.0" stroke-linecap="round" stroke-linejoin="round" fill="none" d="M625.0 63.0 L815.0 63.0 "></path><path stroke="#000000" stroke-width="1.0" stroke-linecap="round" stroke-linejoin="round" fill="none" d="M95.0 91.0 L95.0 147.0 "></path><text x="236" y="40" font-family="sans-serif" font-size="15" stroke="none" fill="#000000"><![CDATA[user token]]></text><text x="644" y="40" font-family="sans-serif" font-size="15" stroke="none" fill="#000000"><![CDATA[exchanged token]]></text><text x="63" y="54" font-family="sans-serif" font-size="15" stroke="none" fill="#000000"><![CDATA[Frontend]]></text><text x="72" y="68" font-family="sans-serif" font-size="15" stroke="none" fill="#000000"><![CDATA[/ Client]]></text><text x="451" y="54" font-family="sans-serif" font-size="15" stroke="none" fill="#000000"><![CDATA[Front Service]]></text><text x="878" y="54" font-family="sans-serif" font-size="15" stroke="none" fill="#000000"><![CDATA[Back Service]]></text><text x="257" y="82" font-family="sans-serif" font-size="15" stroke="none" fill="#000000"><![CDATA[result]]></text><text x="441" y="82" font-family="sans-serif" font-size="15" stroke="none" fill="#000000"><![CDATA[resource server]]></text><text x="451" y="96" font-family="sans-serif" font-size="15" stroke="none" fill="#000000"><![CDATA[+ OAuth2]]></text><text x="478" y="110" font-family="sans-serif" font-size="15" stroke="none" fill="#000000"><![CDATA[client]]></text><text x="697" y="82" font-family="sans-serif" font-size="15" stroke="none" fill="#000000"><![CDATA[result]]></text><text x="861" y="82" font-family="sans-serif" font-size="15" stroke="none" fill="#000000"><![CDATA[resource server]]></text><text x="116" y="124" font-family="sans-serif" font-size="15" stroke="none" fill="#000000"><![CDATA[login]]></text><text x="510" y="152" font-family="sans-serif" font-size="15" stroke="none" fill="#000000"><![CDATA[token exchange]]></text><text x="510" y="166" font-family="sans-serif" font-size="15" stroke="none" fill="#000000"><![CDATA[(grant_type token exchange)]]></text><text x="63" y="180" font-family="sans-serif" font-size="15" stroke="none" fill="#000000"><![CDATA[Keycloak]]></text><text x="75" y="194" font-family="sans-serif" font-size="15" stroke="none" fill="#000000"><![CDATA[(IdP)]]></text><text x="202" y="194" font-family="sans-serif" font-size="15" stroke="none" fill="#000000"><![CDATA[issues user token and exchanged token]]></text></g></svg>