<?xml version="1.0" encoding="UTF-8"?><svg xmlns="http://www.w3.org/2000/svg" width="700" height="154" version="1.0" shape-rendering="geometricPrecision"><defs><filter id="shadowBlur" x="0" y="0" width="200%" height="200%"><feOffset in="SourceGraphic" dx="3.0003002" dy="3.0003002" result="offOut"></feOffset><feGaussianBlur in="offOut" stdDeviation="3"></feGaussianBlur></filter></defs><g stroke-width="1" stroke-linecap="square" stroke-linejoin="round"><rect x="0" y="0" width="700" height="154" style="fill: #ffffff"></rect><path stroke="#969696" fill="#969696" filter="url(#shadowBlur)" d="M485.0 35.0 L675.0 35.0 L675.0 119.0 L485.0 119.0 z"></path><path stroke="#969696" fill="#969696" filter="url(#shadowBlur)" d="M115.0 35.0 L265.0 35.0 L265.0 119.0 L115.0 119.0 z"></path><path stroke="#000000" stroke-width="1.0" stroke-linecap="round" stroke-linejoin="round" fill="white" d="M485.0 35.0 L675.0 35.0 L675.0 119.0 L485.0 119.0 z"></path><path stroke="#000000" stroke-width="1.0" stroke-linecap="round" stroke-linejoin="round" fill="white" d="M115.0 35.0 L265.0 35.0 L265.0 119.0 L115.0 119.0 z"></path><path stroke="#000000" stroke-width="1.0" stroke-linecap="round" stroke-linejoin="round" fill="none" d="M275.0 77.0 L325.0 77.0 L325.0 105.0 L485.0 105.0 "></path><path stroke="none" stroke-width="1.0" stroke-linecap="round" stroke-linejoin="round" fill="#000000" d="M280.0 70.0 L270.0 77.0 L280.0 84.0 z"></path><path stroke="#000000" stroke-width="1.0" stroke-linecap="round" stroke-linejoin="round" fill="none" d="M125.0 63.0 L255.0 63.0 "></path><path stroke="#000000" stroke-width="1.0" stroke-linecap="round" stroke-linejoin="round" fill="none" d="M495.0 63.0 L665.0 63.0 "></path><text x="136" y="54" font-family="sans-serif" font-size="15" stroke="none" fill="#000000"><![CDATA[EmployeeFile]]></text><text x="502" y="54" font-family="sans-serif" font-size="14" stroke="none" fill="#000000"><![CDATA[EmployeeDocument]]></text><text x="130" y="82" font-family="sans-serif" font-size="15" stroke="none" fill="#000000"><![CDATA[ID]]></text><text x="130" y="95" font-family="sans-serif" font-size="12" stroke="none" fill="#000000"><![CDATA[Name]]></text><text x="130" y="110" font-family="sans-serif" font-size="15" stroke="none" fill="#000000"><![CDATA[Birthday]]></text><text x="500" y="82" font-family="sans-serif" font-size="15" stroke="none" fill="#000000"><![CDATA[ID]]></text><text x="500" y="96" font-family="sans-serif" font-size="15" stroke="none" fill="#000000"><![CDATA[Description]]></text><text x="500" y="110" font-family="sans-serif" font-size="15" stroke="none" fill="#000000"><![CDATA[EmployeeID]]></text><text x="349" y="96" font-family="sans-serif" font-size="15" stroke="none" fill="#000000"><![CDATA[foreign key]]></text></g></svg>