<?xml version="1.0" encoding="UTF-8"?><svg xmlns="http://www.w3.org/2000/svg" width="780" height="154" version="1.0" shape-rendering="geometricPrecision"><defs><filter id="shadowBlur" x="0" y="0" width="200%" height="200%"><feOffset in="SourceGraphic" dx="3.0003002" dy="3.0003002" result="offOut"></feOffset><feGaussianBlur in="offOut" stdDeviation="3"></feGaussianBlur></filter></defs><g stroke-width="1" stroke-linecap="square" stroke-linejoin="round"><rect x="0" y="0" width="780" height="154" style="fill: #ffffff"></rect><path stroke="#969696" fill="#969696" filter="url(#shadowBlur)" d="M325.0 35.0 L475.0 35.0 L475.0 119.0 L325.0 119.0 z"></path><path stroke="#969696" fill="#969696" filter="url(#shadowBlur)" d="M35.0 35.0 L165.0 35.0 L165.0 119.0 L35.0 119.0 z"></path><path stroke="#969696" fill="#969696" filter="url(#shadowBlur)" d="M625.0 35.0 L755.0 35.0 L755.0 119.0 L625.0 119.0 z"></path><path stroke="#000000" stroke-width="1.0" stroke-linecap="round" stroke-linejoin="round" fill="white" d="M325.0 35.0 L475.0 35.0 L475.0 119.0 L325.0 119.0 z"></path><path stroke="#000000" stroke-width="1.0" stroke-linecap="round" stroke-linejoin="round" fill="white" d="M35.0 35.0 L165.0 35.0 L165.0 119.0 L35.0 119.0 z"></path><path stroke="#000000" stroke-width="1.0" stroke-linecap="round" stroke-linejoin="round" fill="white" d="M625.0 35.0 L755.0 35.0 L755.0 119.0 L625.0 119.0 z"></path><path stroke="none" stroke-width="1.0" stroke-linecap="round" stroke-linejoin="round" fill="#000000" d="M180.0 70.0 L170.0 77.0 L180.0 84.0 z"></path><path stroke="none" stroke-width="1.0" stroke-linecap="round" stroke-linejoin="round" fill="#000000" d="M610.0 70.0 L620.0 77.0 L610.0 84.0 z"></path><path stroke="#000000" stroke-width="1.0" stroke-linecap="round" stroke-linejoin="round" fill="none" d="M45.0 63.0 L155.0 63.0 "></path><path stroke="#000000" stroke-width="1.0" stroke-linecap="round" stroke-linejoin="round" fill="none" d="M335.0 63.0 L465.0 63.0 "></path><path stroke="#000000" stroke-width="1.0" stroke-linecap="round" stroke-linejoin="round" fill="none" d="M635.0 63.0 L745.0 63.0 "></path><path stroke="#000000" stroke-width="1.0" stroke-linecap="round" stroke-linejoin="round" fill="none" d="M175.0 77.0 L315.0 77.0 "></path><path stroke="#000000" stroke-width="1.0" stroke-linecap="round" stroke-linejoin="round" fill="none" d="M485.0 77.0 L615.0 77.0 "></path><text x="73" y="54" font-family="sans-serif" font-size="15" stroke="none" fill="#000000"><![CDATA[Parent]]></text><text x="367" y="54" font-family="sans-serif" font-size="15" stroke="none" fill="#000000"><![CDATA[Relation]]></text><text x="666" y="54" font-family="sans-serif" font-size="15" stroke="none" fill="#000000"><![CDATA[Child]]></text><text x="233" y="68" font-family="sans-serif" font-size="15" stroke="none" fill="#000000"><![CDATA[source]]></text><text x="505" y="68" font-family="sans-serif" font-size="15" stroke="none" fill="#000000"><![CDATA[target]]></text><text x="60" y="96" font-family="sans-serif" font-size="15" stroke="none" fill="#000000"><![CDATA[attributes]]></text><text x="360" y="96" font-family="sans-serif" font-size="15" stroke="none" fill="#000000"><![CDATA[attributes]]></text><text x="650" y="96" font-family="sans-serif" font-size="15" stroke="none" fill="#000000"><![CDATA[attributes]]></text></g></svg>