<?xml version="1.0" encoding="UTF-8"?><svg xmlns="http://www.w3.org/2000/svg" width="500" height="154" version="1.0" shape-rendering="geometricPrecision"><defs><filter id="shadowBlur" x="0" y="0" width="200%" height="200%"><feOffset in="SourceGraphic" dx="3.0003002" dy="3.0003002" result="offOut"></feOffset><feGaussianBlur in="offOut" stdDeviation="3"></feGaussianBlur></filter></defs><g stroke-width="1" stroke-linecap="square" stroke-linejoin="round"><rect x="0" y="0" width="500" height="154" style="fill: #ffffff"></rect><path stroke="#969696" fill="#969696" filter="url(#shadowBlur)" d="M35.0 35.0 L165.0 35.0 L165.0 119.0 L35.0 119.0 z"></path><path stroke="#969696" fill="#969696" filter="url(#shadowBlur)" d="M345.0 35.0 L475.0 35.0 L475.0 119.0 L345.0 119.0 z"></path><path stroke="#000000" stroke-width="1.0" stroke-linecap="round" stroke-linejoin="round" fill="white" d="M35.0 35.0 L165.0 35.0 L165.0 119.0 L35.0 119.0 z"></path><path stroke="#000000" stroke-width="1.0" stroke-linecap="round" stroke-linejoin="round" fill="white" d="M345.0 35.0 L475.0 35.0 L475.0 119.0 L345.0 119.0 z"></path><path stroke="none" stroke-width="1.0" stroke-linecap="round" stroke-linejoin="round" fill="#000000" d="M330.0 70.0 L340.0 77.0 L330.0 84.0 z"></path><path stroke="#000000" stroke-width="1.0" stroke-linecap="round" stroke-linejoin="round" fill="none" d="M45.0 63.0 L155.0 63.0 "></path><path stroke="#000000" stroke-width="1.0" stroke-linecap="round" stroke-linejoin="round" fill="none" d="M355.0 63.0 L465.0 63.0 "></path><path stroke="#000000" stroke-width="1.0" stroke-linecap="round" stroke-linejoin="round" fill="none" d="M175.0 77.0 L335.0 77.0 "></path><text x="73" y="54" font-family="sans-serif" font-size="15" stroke="none" fill="#000000"><![CDATA[Parent]]></text><text x="386" y="54" font-family="sans-serif" font-size="15" stroke="none" fill="#000000"><![CDATA[Child]]></text><text x="209" y="68" font-family="sans-serif" font-size="15" stroke="none" fill="#000000"><![CDATA[foreign key]]></text><text x="60" y="96" font-family="sans-serif" font-size="15" stroke="none" fill="#000000"><![CDATA[attributes]]></text><text x="370" y="96" font-family="sans-serif" font-size="15" stroke="none" fill="#000000"><![CDATA[attributes]]></text></g></svg>