<?xml version="1.0" encoding="UTF-8"?><svg xmlns="http://www.w3.org/2000/svg" width="780" height="210" version="1.0" shape-rendering="geometricPrecision"><defs><filter id="shadowBlur" x="0" y="0" width="200%" height="200%"><feOffset in="SourceGraphic" dx="3.0003002" dy="3.0003002" result="offOut"></feOffset><feGaussianBlur in="offOut" stdDeviation="3"></feGaussianBlur></filter></defs><g stroke-width="1" stroke-linecap="square" stroke-linejoin="round"><rect x="0" y="0" width="780" height="210" style="fill: #ffffff"></rect><path stroke="#969696" fill="#969696" filter="url(#shadowBlur)" d="M445.0 65.0 L755.0 65.0 L755.0 175.0 L445.0 175.0 z"></path><path stroke="#969696" fill="#969696" filter="url(#shadowBlur)" d="M115.0 65.0 L345.0 65.0 L345.0 161.0 L115.0 161.0 z"></path><path stroke="#969696" fill="#969696" filter="url(#shadowBlur)" d="M445.0 35.0 L755.0 35.0 L755.0 61.0 L445.0 61.0 z"></path><path stroke="#969696" fill="#969696" filter="url(#shadowBlur)" d="M115.0 35.0 L345.0 35.0 L345.0 61.0 L115.0 61.0 z"></path><path stroke="#000000" stroke-width="1.0" stroke-linecap="round" stroke-linejoin="round" fill="white" d="M445.0 65.0 L755.0 65.0 L755.0 175.0 L445.0 175.0 z"></path><path stroke="#000000" stroke-width="1.0" stroke-linecap="round" stroke-linejoin="round" fill="white" d="M115.0 65.0 L345.0 65.0 L345.0 161.0 L115.0 161.0 z"></path><path stroke="#000000" stroke-width="1.0" stroke-linecap="round" stroke-linejoin="round" fill="white" d="M445.0 35.0 L755.0 35.0 L755.0 61.0 L445.0 61.0 z"></path><path stroke="#000000" stroke-width="1.0" stroke-linecap="round" stroke-linejoin="round" fill="white" d="M115.0 35.0 L345.0 35.0 L345.0 61.0 L115.0 61.0 z"></path><path stroke="#000000" stroke-width="1.0" stroke-linecap="round" stroke-linejoin="round" fill="none" d="M125.0 91.0 L335.0 91.0 "></path><path stroke="#000000" stroke-width="1.0" stroke-linecap="round" stroke-linejoin="round" fill="none" d="M455.0 91.0 L745.0 91.0 "></path><text x="147" y="54" font-family="sans-serif" font-size="15" stroke="none" fill="#000000"><![CDATA[ecr_folder_structure]]></text><text x="484" y="54" font-family="sans-serif" font-size="15" stroke="none" fill="#000000"><![CDATA[ecr_folder_structure_closure]]></text><text x="141" y="82" font-family="sans-serif" font-size="15" stroke="none" fill="#000000"><![CDATA[child_id]]></text><text x="463" y="82" font-family="sans-serif" font-size="15" stroke="none" fill="#000000"><![CDATA[id]]></text><text x="130" y="110" font-family="sans-serif" font-size="15" stroke="none" fill="#000000"><![CDATA[child_name]]></text><text x="130" y="124" font-family="sans-serif" font-size="15" stroke="none" fill="#000000"><![CDATA[child_type_id]]></text><text x="130" y="138" font-family="sans-serif" font-size="15" stroke="none" fill="#000000"><![CDATA[parent_id]]></text><text x="130" y="152" font-family="sans-serif" font-size="15" stroke="none" fill="#000000"><![CDATA[parent_type_id]]></text><text x="460" y="110" font-family="sans-serif" font-size="15" stroke="none" fill="#000000"><![CDATA[child_id]]></text><text x="460" y="124" font-family="sans-serif" font-size="15" stroke="none" fill="#000000"><![CDATA[child_type_id]]></text><text x="460" y="138" font-family="sans-serif" font-size="15" stroke="none" fill="#000000"><![CDATA[depth]]></text><text x="460" y="152" font-family="sans-serif" font-size="15" stroke="none" fill="#000000"><![CDATA[parent_id]]></text><text x="460" y="166" font-family="sans-serif" font-size="15" stroke="none" fill="#000000"><![CDATA[parent_type_id]]></text></g></svg>