<?xml version="1.0" encoding="UTF-8"?><svg xmlns="http://www.w3.org/2000/svg" width="810" height="196" version="1.0" shape-rendering="geometricPrecision"><defs><filter id="shadowBlur" x="0" y="0" width="200%" height="200%"><feOffset in="SourceGraphic" dx="3.0003002" dy="3.0003002" result="offOut"></feOffset><feGaussianBlur in="offOut" stdDeviation="3"></feGaussianBlur></filter></defs><g stroke-width="1" stroke-linecap="square" stroke-linejoin="round"><rect x="0" y="0" width="810" height="196" style="fill: #ffffff"></rect><path stroke="#969696" fill="#969696" filter="url(#shadowBlur)" d="M495.0 65.0 L785.0 65.0 L785.0 161.0 L495.0 161.0 z"></path><path stroke="#969696" fill="#969696" filter="url(#shadowBlur)" d="M115.0 65.0 L275.0 65.0 L275.0 161.0 L115.0 161.0 z"></path><path stroke="#969696" fill="#969696" filter="url(#shadowBlur)" d="M495.0 35.0 L785.0 35.0 L785.0 61.0 L495.0 61.0 z"></path><path stroke="#969696" fill="#969696" filter="url(#shadowBlur)" d="M115.0 35.0 L275.0 35.0 L275.0 61.0 L115.0 61.0 z"></path><path stroke="#000000" stroke-width="1.0" stroke-linecap="round" stroke-linejoin="round" fill="white" d="M495.0 65.0 L785.0 65.0 L785.0 161.0 L495.0 161.0 z"></path><path stroke="#000000" stroke-width="1.0" stroke-linecap="round" stroke-linejoin="round" fill="white" d="M115.0 65.0 L275.0 65.0 L275.0 161.0 L115.0 161.0 z"></path><path stroke="#000000" stroke-width="1.0" stroke-linecap="round" stroke-linejoin="round" fill="white" d="M495.0 35.0 L785.0 35.0 L785.0 61.0 L495.0 61.0 z"></path><path stroke="#000000" stroke-width="1.0" stroke-linecap="round" stroke-linejoin="round" fill="white" d="M115.0 35.0 L275.0 35.0 L275.0 61.0 L115.0 61.0 z"></path><path stroke="#000000" stroke-width="1.0" stroke-linecap="round" stroke-linejoin="round" fill="none" d="M285.0 77.0 L335.0 77.0 L335.0 91.0 L495.0 91.0 "></path><path stroke="none" stroke-width="1.0" stroke-linecap="round" stroke-linejoin="round" fill="#000000" d="M290.0 70.0 L280.0 77.0 L290.0 84.0 z"></path><path stroke="#000000" stroke-width="1.0" stroke-linecap="round" stroke-linejoin="round" fill="none" d="M125.0 91.0 L265.0 91.0 "></path><path stroke="#000000" stroke-width="1.0" stroke-linecap="round" stroke-linejoin="round" fill="none" d="M505.0 105.0 L775.0 105.0 "></path><text x="155" y="54" font-family="sans-serif" font-size="15" stroke="none" fill="#000000"><![CDATA[ecr_types]]></text><text x="523" y="54" font-family="sans-serif" font-size="15" stroke="none" fill="#000000"><![CDATA[ecr_types_content_elements]]></text><text x="133" y="82" font-family="sans-serif" font-size="15" stroke="none" fill="#000000"><![CDATA[id]]></text><text x="510" y="82" font-family="sans-serif" font-size="14" stroke="none" fill="#000000"><![CDATA[ce_name]]></text><text x="510" y="96" font-family="sans-serif" font-size="15" stroke="none" fill="#000000"><![CDATA[ce_type_id]]></text><text x="130" y="110" font-family="sans-serif" font-size="15" stroke="none" fill="#000000"><![CDATA[creation_date]]></text><text x="130" y="124" font-family="sans-serif" font-size="15" stroke="none" fill="#000000"><![CDATA[ecr_version]]></text><text x="130" y="138" font-family="sans-serif" font-size="15" stroke="none" fill="#000000"><![CDATA[object_type]]></text><text x="130" y="152" font-family="sans-serif" font-size="14" stroke="none" fill="#000000"><![CDATA[type_name]]></text><text x="510" y="124" font-family="sans-serif" font-size="15" stroke="none" fill="#000000"><![CDATA[ce_content_type]]></text><text x="510" y="138" font-family="sans-serif" font-size="15" stroke="none" fill="#000000"><![CDATA[ce_profile]]></text><text x="510" y="152" font-family="sans-serif" font-size="15" stroke="none" fill="#000000"><![CDATA[ce_store_json]]></text></g></svg>