<?xml version="1.0" encoding="UTF-8"?><svg xmlns="http://www.w3.org/2000/svg" width="720" height="154" version="1.0" shape-rendering="geometricPrecision"><defs><filter id="shadowBlur" x="0" y="0" width="200%" height="200%"><feOffset in="SourceGraphic" dx="3.0003002" dy="3.0003002" result="offOut"></feOffset><feGaussianBlur in="offOut" stdDeviation="3"></feGaussianBlur></filter></defs><g stroke-width="1" stroke-linecap="square" stroke-linejoin="round"><rect x="0" y="0" width="720" height="154" style="fill: #ffffff"></rect><path stroke="#969696" fill="#969696" filter="url(#shadowBlur)" d="M115.0 65.0 L325.0 65.0 L325.0 119.0 L115.0 119.0 z"></path><path stroke="#969696" fill="#969696" filter="url(#shadowBlur)" d="M445.0 65.0 L695.0 65.0 L695.0 105.0 L445.0 105.0 z"></path><path stroke="#969696" fill="#969696" filter="url(#shadowBlur)" d="M445.0 35.0 L695.0 35.0 L695.0 61.0 L445.0 61.0 z"></path><path stroke="#969696" fill="#969696" filter="url(#shadowBlur)" d="M115.0 35.0 L325.0 35.0 L325.0 61.0 L115.0 61.0 z"></path><path stroke="#000000" stroke-width="1.0" stroke-linecap="round" stroke-linejoin="round" fill="white" d="M115.0 65.0 L325.0 65.0 L325.0 119.0 L115.0 119.0 z"></path><path stroke="#000000" stroke-width="1.0" stroke-linecap="round" stroke-linejoin="round" fill="white" d="M445.0 65.0 L695.0 65.0 L695.0 105.0 L445.0 105.0 z"></path><path stroke="#000000" stroke-width="1.0" stroke-linecap="round" stroke-linejoin="round" fill="white" d="M445.0 35.0 L695.0 35.0 L695.0 61.0 L445.0 61.0 z"></path><path stroke="#000000" stroke-width="1.0" stroke-linecap="round" stroke-linejoin="round" fill="white" d="M115.0 35.0 L325.0 35.0 L325.0 61.0 L115.0 61.0 z"></path><path stroke="#000000" stroke-width="1.0" stroke-linecap="round" stroke-linejoin="round" fill="none" d="M335.0 77.0 L365.0 77.0 L365.0 91.0 L445.0 91.0 "></path><path stroke="none" stroke-width="1.0" stroke-linecap="round" stroke-linejoin="round" fill="#000000" d="M340.0 70.0 L330.0 77.0 L340.0 84.0 z"></path><path stroke="#000000" stroke-width="1.0" stroke-linecap="round" stroke-linejoin="round" fill="none" d="M125.0 91.0 L315.0 91.0 "></path><text x="154" y="54" font-family="sans-serif" font-size="15" stroke="none" fill="#000000"><![CDATA[ecr_keys_profile]]></text><text x="476" y="54" font-family="sans-serif" font-size="15" stroke="none" fill="#000000"><![CDATA[ecr_keys_assoc_profile]]></text><text x="133" y="82" font-family="sans-serif" font-size="15" stroke="none" fill="#000000"><![CDATA[id]]></text><text x="460" y="82" font-family="sans-serif" font-size="15" stroke="none" fill="#000000"><![CDATA[content_id]]></text><text x="460" y="96" font-family="sans-serif" font-size="15" stroke="none" fill="#000000"><![CDATA[id]]></text><text x="130" y="110" font-family="sans-serif" font-size="15" stroke="none" fill="#000000"><![CDATA[key]]></text></g></svg>